<?xml version="1.0" encoding="UTF-8" standalone="no"?><svg xmlns="http://www.w3.org/2000/svg" xmlns:xlink="http://www.w3.org/1999/xlink" contentScriptType="application/ecmascript" contentStyleType="text/css" height="93px" preserveAspectRatio="none" style="width:1062px;height:93px;" version="1.1" viewBox="0 0 1062 93" width="1062px" zoomAndPan="magnify"><defs><filter height="300%" id="f11pmuxlsy8t2u" width="300%" x="-1" y="-1"><feGaussianBlur result="blurOut" stdDeviation="2.0"/><feColorMatrix in="blurOut" result="blurOut2" type="matrix" values="0 0 0 0 0 0 0 0 0 0 0 0 0 0 0 0 0 0 .4 0"/><feOffset dx="4.0" dy="4.0" in="blurOut2" result="blurOut3"/><feBlend in="SourceGraphic" in2="blurOut3" mode="normal"/></filter></defs><g><!--entity tool--><polygon fill="#FFFFFF" filter="url(#f11pmuxlsy8t2u)" points="6,28.5,16,18.5,139,18.5,139,71.4766,129,81.4766,6,81.4766,6,28.5" style="stroke: #000000; stroke-width: 1.5;"/><line style="stroke: #000000; stroke-width: 1.5;" x1="129" x2="138" y1="28.5" y2="19.5"/><line style="stroke: #000000; stroke-width: 1.5;" x1="6" x2="129" y1="28.5" y2="28.5"/><line style="stroke: #000000; stroke-width: 1.5;" x1="129" x2="129" y1="28.5" y2="81.4766"/><text fill="#000000" font-family="sans-serif" font-size="14" lengthAdjust="spacingAndGlyphs" textLength="93" x="21" y="52.0352">Kiln Scanning</text><text fill="#000000" font-family="sans-serif" font-size="14" lengthAdjust="spacingAndGlyphs" textLength="68" x="21" y="68.5234">Container</text><!--entity collector--><polygon fill="#FFFFFF" filter="url(#f11pmuxlsy8t2u)" points="277.5,28.5,287.5,18.5,379.5,18.5,379.5,71.4766,369.5,81.4766,277.5,81.4766,277.5,28.5" style="stroke: #000000; stroke-width: 1.5;"/><line style="stroke: #000000; stroke-width: 1.5;" x1="369.5" x2="378.5" y1="28.5" y2="19.5"/><line style="stroke: #000000; stroke-width: 1.5;" x1="277.5" x2="369.5" y1="28.5" y2="28.5"/><line style="stroke: #000000; stroke-width: 1.5;" x1="369.5" x2="369.5" y1="28.5" y2="81.4766"/><text fill="#000000" font-family="sans-serif" font-size="14" lengthAdjust="spacingAndGlyphs" textLength="61" x="292.5" y="52.0352">Kiln Data</text><text fill="#000000" font-family="sans-serif" font-size="14" lengthAdjust="spacingAndGlyphs" textLength="62" x="292.5" y="68.5234">Collector</text><!--entity kafka_cluster--><polygon fill="#FFFFFF" filter="url(#f11pmuxlsy8t2u)" points="494,28.5,504,18.5,583,18.5,583,71.4766,573,81.4766,494,81.4766,494,28.5" style="stroke: #000000; stroke-width: 1.5;"/><line style="stroke: #000000; stroke-width: 1.5;" x1="573" x2="582" y1="28.5" y2="19.5"/><line style="stroke: #000000; stroke-width: 1.5;" x1="494" x2="573" y1="28.5" y2="28.5"/><line style="stroke: #000000; stroke-width: 1.5;" x1="573" x2="573" y1="28.5" y2="81.4766"/><text fill="#000000" font-family="sans-serif" font-size="14" lengthAdjust="spacingAndGlyphs" textLength="38" x="509" y="52.0352">Kafka</text><text fill="#000000" font-family="sans-serif" font-size="14" lengthAdjust="spacingAndGlyphs" textLength="49" x="509" y="68.5234">Cluster</text><!--entity slack_connector--><polygon fill="#FFFFFF" filter="url(#f11pmuxlsy8t2u)" points="730.5,28.5,740.5,18.5,842.5,18.5,842.5,71.4766,832.5,81.4766,730.5,81.4766,730.5,28.5" style="stroke: #000000; stroke-width: 1.5;"/><line style="stroke: #000000; stroke-width: 1.5;" x1="832.5" x2="841.5" y1="28.5" y2="19.5"/><line style="stroke: #000000; stroke-width: 1.5;" x1="730.5" x2="832.5" y1="28.5" y2="28.5"/><line style="stroke: #000000; stroke-width: 1.5;" x1="832.5" x2="832.5" y1="28.5" y2="81.4766"/><text fill="#000000" font-family="sans-serif" font-size="14" lengthAdjust="spacingAndGlyphs" textLength="65" x="745.5" y="52.0352">Kiln Slack</text><text fill="#000000" font-family="sans-serif" font-size="14" lengthAdjust="spacingAndGlyphs" textLength="72" x="745.5" y="68.5234">Connector</text><!--entity slack--><polygon fill="#FFFFFF" filter="url(#f11pmuxlsy8t2u)" points="965,37,975,27,1040,27,1040,63.4883,1030,73.4883,965,73.4883,965,37" style="stroke: #000000; stroke-width: 1.5;"/><line style="stroke: #000000; stroke-width: 1.5;" x1="1030" x2="1039" y1="37" y2="28"/><line style="stroke: #000000; stroke-width: 1.5;" x1="965" x2="1030" y1="37" y2="37"/><line style="stroke: #000000; stroke-width: 1.5;" x1="1030" x2="1030" y1="37" y2="73.4883"/><text fill="#000000" font-family="sans-serif" font-size="14" lengthAdjust="spacingAndGlyphs" textLength="35" x="980" y="60.5352">Slack</text><!--link tool to collector--><path d="M139.09,50 C180.35,50 232.77,50 271.99,50 " fill="none" id="tool-collector" style="stroke: #000000; stroke-width: 1.0;"/><polygon fill="#000000" points="277.19,50,268.19,46,272.19,50,268.19,54,277.19,50" style="stroke: #000000; stroke-width: 1.0;"/><text fill="#000000" font-family="sans-serif" font-size="13" lengthAdjust="spacingAndGlyphs" textLength="69" x="173.75" y="13.5684">HTTP POST</text><text fill="#000000" font-family="sans-serif" font-size="13" lengthAdjust="spacingAndGlyphs" textLength="102" x="157.25" y="28.8789">with tool output</text><text fill="#000000" font-family="sans-serif" font-size="13" lengthAdjust="spacingAndGlyphs" textLength="85" x="165.75" y="44.1895">and metadata</text><!--link collector to kafka_cluster--><path d="M379.6,50 C412.79,50 455.84,50 488.76,50 " fill="none" id="collector-kafka_cluster" style="stroke: #000000; stroke-width: 1.0;"/><polygon fill="#000000" points="493.95,50,484.95,46,488.95,50,484.95,54,493.95,50" style="stroke: #000000; stroke-width: 1.0;"/><text fill="#000000" font-family="sans-serif" font-size="13" lengthAdjust="spacingAndGlyphs" textLength="78" x="397.75" y="13.5684">Create event</text><text fill="#000000" font-family="sans-serif" font-size="13" lengthAdjust="spacingAndGlyphs" textLength="74" x="399.75" y="28.8789">and send to</text><text fill="#000000" font-family="sans-serif" font-size="13" lengthAdjust="spacingAndGlyphs" textLength="32" x="420.75" y="44.1895">topic</text><!--link kafka_cluster to slack_connector--><path d="M583.12,50 C622.87,50 681.39,50 725.46,50 " fill="none" id="kafka_cluster-slack_connector" style="stroke: #000000; stroke-width: 1.0;"/><polygon fill="#000000" points="730.49,50,721.49,46,725.49,50,721.49,54,730.49,50" style="stroke: #000000; stroke-width: 1.0;"/><text fill="#000000" font-family="sans-serif" font-size="13" lengthAdjust="spacingAndGlyphs" textLength="111" x="601.25" y="13.5684">Consumes events</text><text fill="#000000" font-family="sans-serif" font-size="13" lengthAdjust="spacingAndGlyphs" textLength="69" x="622.25" y="28.8789">from Kafka</text><text fill="#000000" font-family="sans-serif" font-size="13" lengthAdjust="spacingAndGlyphs" textLength="32" x="640.75" y="44.1895">topic</text><!--link slack_connector to slack--><path d="M842.69,50 C879.23,50 926.15,50 959.68,50 " fill="none" id="slack_connector-slack" style="stroke: #000000; stroke-width: 1.0;"/><polygon fill="#000000" points="964.94,50,955.94,46,959.94,50,955.94,54,964.94,50" style="stroke: #000000; stroke-width: 1.0;"/><text fill="#000000" font-family="sans-serif" font-size="13" lengthAdjust="spacingAndGlyphs" textLength="39" x="884.25" y="13.5684">Notify</text><text fill="#000000" font-family="sans-serif" font-size="13" lengthAdjust="spacingAndGlyphs" textLength="72" x="867.75" y="28.8789">appropriate</text><text fill="#000000" font-family="sans-serif" font-size="13" lengthAdjust="spacingAndGlyphs" textLength="86" x="860.75" y="44.1895">Slack channel</text><!--
@startuml
skinparam nodeBackgroundColor White
skinparam arrowColor Black

node "Kiln Scanning\nContainer" as tool
node "Kiln Data\nCollector" as collector
node "Kafka\nCluster" as kafka_cluster
node "Kiln Slack\nConnector" as slack_connector
node "Slack" as slack

tool -r-> collector : HTTP POST\nwith tool output\nand metadata
collector -r-> kafka_cluster : Create event\nand send to\ntopic
kafka_cluster -r-> slack_connector : Consumes events\nfrom Kafka\ntopic
slack_connector -r-> slack : Notify\nappropriate\nSlack channel
@enduml

PlantUML version 1.2017.15(Mon Jul 03 17:45:34 BST 2017)
(GPL source distribution)
Java Runtime: OpenJDK Runtime Environment
JVM: OpenJDK 64-Bit Server VM
Java Version: 1.8.0_222-b10
Operating System: Mac OS X
OS Version: 10.14.6
Default Encoding: UTF-8
Language: en
Country: GB
--></g></svg>